<svg t="1705051150902" class="icon" viewBox="0 0 1024 1024" version="1.1"
    xmlns="http://www.w3.org/2000/svg" p-id="1811" width="60" height="60">
    <path
        d="M466.645333 890.453333C231.978667 890.453333 42.666667 700.842667 42.666667 467.328 42.666667 233.856 231.978667 42.666667 466.645333 42.666667c234.666667 0 423.936 189.610667 423.936 424.661333 0 75.221333-20.309333 148.906667-56.32 213.12-12.501333 21.930667-42.24 29.781333-64.128 17.237333-21.888-12.544-29.738667-42.282667-17.194666-64.256 29.696-50.133333 43.776-106.538667 43.776-166.101333-1.536-183.338667-148.608-330.666667-330.069334-330.666667-181.504 0-330.112 147.328-330.112 330.666667a329.429333 329.429333 0 0 0 330.112 330.666667 340.565333 340.565333 0 0 0 165.802667-43.904c21.930667-12.501333 51.626667-4.693333 64.170667 17.237333 12.501333 21.973333 4.693333 51.754667-17.237334 64.256a443.562667 443.562667 0 0 1-212.736 54.869333z"
        fill="currentColor" p-id="1812"></path>
    <path
        d="M466.645333 890.453333C231.978667 890.453333 42.666667 700.842667 42.666667 467.328c0-75.221333 20.352-148.864 56.32-213.12 12.501333-21.930667 42.24-29.781333 64.128-17.237333 21.930667 12.544 29.738667 42.325333 17.237333 64.256A342.058667 342.058667 0 0 0 136.533333 467.328c0 181.76 147.072 330.666667 330.112 330.666667a329.429333 329.429333 0 0 0 330.069334-330.666667c0-183.338667-148.608-330.666667-330.069334-330.666667a340.608 340.608 0 0 0-165.845333 43.946667c-21.888 12.501333-51.626667 4.693333-64.128-17.28-12.544-21.930667-4.693333-51.712 17.194667-64.256A436.053333 436.053333 0 0 1 466.645333 42.666667c233.088 0 422.4 189.610667 422.4 424.661333a421.973333 421.973333 0 0 1-422.4 423.125333z"
        fill="currentColor" p-id="1813"></path>
    <path
        d="M934.4 981.333333c-12.501333 0-23.466667-4.693333-32.853333-14.08l-198.698667-199.04c-18.773333-18.773333-18.773333-48.597333 0-65.834666 18.773333-18.773333 48.512-18.773333 65.706667 0l198.698666 199.04c18.773333 18.773333 18.773333 48.597333 0 65.834666-9.386667 9.386667-21.888 14.08-32.853333 14.08z"
        fill="currentColor" p-id="1814"></path>
</svg>